<svg width="17" height="10" viewBox="0 0 17 10" fill="none" xmlns="http://www.w3.org/2000/svg">
<path fill-rule="evenodd" clip-rule="evenodd" d="M10.5 8C9.94771 8 9.5 8.44772 9.5 9C9.5 9.55229 9.94771 10 10.5 10H15.5C16.0523 10 16.5 9.55229 16.5 9V4C16.5 3.44772 16.0523 3 15.5 3C14.9477 3 14.5 3.44772 14.5 4V6.58579L10.2071 2.29289C9.81658 1.90237 9.18342 1.90237 8.79289 2.29289L6.5 4.58579L2.20711 0.292894C1.81658 -0.0976312 1.18342 -0.0976312 0.792893 0.292894C0.402369 0.683418 0.402369 1.31658 0.792893 1.70711L5.79289 6.70711C6.18342 7.09763 6.81658 7.09763 7.20711 6.70711L9.5 4.41421L13.0858 8H10.5Z" fill="#F32020"/>
</svg>
