<svg width="34" height="40" viewBox="0 0 34 40" fill="none" xmlns="http://www.w3.org/2000/svg">
<path d="M16.1911 37.8787C19.721 37.8757 23.1054 36.4166 25.6005 33.8222C28.0955 31.2278 29.4971 27.7103 29.4971 24.0428C29.4971 20.3753 28.0955 16.8578 25.6005 14.2634C23.1054 11.669 19.721 10.21 16.1911 10.207H15V6.29125L16.5654 6V8.07744C25.2366 8.18973 33.9616 13.1443 33.9999 23.4064C34.0366 33.2662 24.8776 39.7657 16.191 40V37.8787L16.1911 37.8787Z" fill="#485E88"/>
<path fill-rule="evenodd" clip-rule="evenodd" d="M32 3.70092L15 7V0L32 3.70092Z" fill="#ED1C24"/>
<path d="M1.59263 1.69131V2.48455C1.64484 2.48761 1.69715 2.48042 1.74641 2.46343C1.79566 2.44644 1.84083 2.42 1.87918 2.3857C1.94623 2.3004 1.97815 2.19417 1.96878 2.08752C1.97694 1.98183 1.94669 1.87669 1.88323 1.79017C1.85182 1.75608 1.81268 1.72943 1.76886 1.71228C1.72505 1.69513 1.67772 1.68796 1.63056 1.69131H1.59263ZM0.627954 4.3295V1H1.73709C2.11247 1 2.40819 1.09187 2.62426 1.27561C2.73228 1.36992 2.81733 1.48612 2.8733 1.61586C2.92926 1.7456 2.95477 1.88568 2.94798 2.02605C2.95344 2.20252 2.90273 2.37637 2.80268 2.52423C2.6925 2.67196 2.54103 2.78644 2.36595 2.85433L3.04967 4.3295H2.0277L1.59263 3.04114V4.3295H0.627954ZM3.24425 3.13921V1H4.20648V3.22796C4.20048 3.30354 4.21941 3.37902 4.26056 3.4436C4.28086 3.46735 4.3068 3.48604 4.33616 3.49811C4.36553 3.51018 4.39747 3.51526 4.4293 3.51293C4.46137 3.51533 4.49356 3.51028 4.52319 3.49822C4.55282 3.48616 4.57902 3.46743 4.5996 3.4436C4.64079 3.37903 4.65973 3.30354 4.6537 3.22796V1H5.62076V3.13921C5.62076 3.5736 5.52498 3.89174 5.33341 4.09362C5.14209 4.29525 4.84071 4.39593 4.4293 4.39566C4.01919 4.39566 3.71915 4.29498 3.52919 4.09362C3.33951 3.892 3.24454 3.57386 3.24425 3.13921ZM5.98971 4.3295V1H6.9592V2.39114L7.48715 1H8.47602L7.76402 2.53671L8.49457 4.3295H7.45163L6.9592 2.81539V4.3295H5.98971ZM8.62941 3.13921V1H9.59164V3.22796C9.58563 3.30354 9.60456 3.37902 9.64572 3.4436C9.66603 3.46735 9.69196 3.48604 9.72132 3.49811C9.75069 3.51017 9.78263 3.51526 9.81446 3.51293C9.84653 3.51533 9.87872 3.51029 9.90835 3.49822C9.93798 3.48616 9.96418 3.46743 9.98476 3.4436C10.026 3.37903 10.0449 3.30354 10.0389 3.22796V1H11.0059V3.13921C11.0059 3.5736 10.9101 3.89174 10.7186 4.09362C10.5272 4.29525 10.2259 4.39593 9.81446 4.39566C9.40435 4.39566 9.10431 4.29498 8.91435 4.09362C8.72466 3.892 8.62968 3.57386 8.62941 3.13921ZM11.3797 4.3295V1H12.3403L12.8723 2.75155V1H13.7474V4.3295H12.7988L12.262 2.66283V4.3295H11.3797ZM0 6.60335H0.958211L1.18503 8.57359L1.49985 6.60335H2.27561L2.5848 8.57359L2.81891 6.60335H3.77712L3.10305 9.93282H2.21832L1.88738 7.85044L1.55394 9.93282H0.671618L0 6.60335ZM3.60032 9.93282L4.35667 6.60335H5.44242L6.19719 9.93282H5.25837L5.18491 9.4424H4.61498L4.54156 9.93282H3.60032ZM4.70945 8.76981H5.09288L4.89834 7.53591L4.70945 8.76977V8.76981ZM7.31282 7.29463V8.0879C7.36503 8.09096 7.41734 8.08378 7.4666 8.06679C7.51585 8.0498 7.56102 8.02335 7.59937 7.98905C7.66642 7.90375 7.69834 7.79753 7.68897 7.69088C7.69713 7.58519 7.66689 7.48005 7.60342 7.39351C7.57201 7.35942 7.53288 7.33277 7.48905 7.31563C7.44523 7.29848 7.39791 7.29131 7.35074 7.29465L7.31282 7.29463ZM6.34815 9.93282V6.60335H7.45729C7.83266 6.60335 8.12839 6.6952 8.34446 6.8789C8.45247 6.97321 8.53751 7.0894 8.59347 7.21914C8.64944 7.34888 8.67495 7.48895 8.66817 7.62932C8.67362 7.8058 8.62292 7.97965 8.52288 8.12752C8.41267 8.27524 8.26121 8.38971 8.08614 8.45761L8.76987 9.93277H7.7479L7.31282 8.64444V9.93277L6.34815 9.93282ZM11.3717 7.98975V8.00376C11.3781 8.13144 11.3813 8.22641 11.3814 8.28867C11.3814 8.8694 11.2821 9.29964 11.0835 9.57939C10.8849 9.85885 10.5806 9.9987 10.1705 9.99895C9.98455 10.0069 9.79952 9.96956 9.63247 9.89038C9.46543 9.81121 9.32175 9.69274 9.2147 9.5459C8.9895 9.24462 8.87676 8.81932 8.87648 8.26999C8.87648 7.71418 8.99003 7.28629 9.21714 6.98633C9.44401 6.6866 9.76798 6.53686 10.1891 6.53712C10.4473 6.52565 10.7024 6.59503 10.9164 6.7349C11.1196 6.89213 11.2665 7.10698 11.3362 7.34909L10.4991 7.62543C10.474 7.53395 10.4288 7.44873 10.3667 7.37553C10.3421 7.35066 10.3123 7.33103 10.2794 7.31789C10.2464 7.30476 10.211 7.29841 10.1753 7.29927C10.1163 7.29956 10.0591 7.31922 10.0132 7.35501C9.96728 7.39081 9.93536 7.4406 9.92268 7.49621C9.87508 7.62777 9.85114 7.87143 9.85086 8.22718C9.85086 8.58141 9.87451 8.82351 9.92183 8.95349C9.93414 9.00836 9.96548 9.05755 10.0107 9.09293C10.0559 9.12831 10.1123 9.14776 10.1705 9.14809C10.2107 9.14972 10.2507 9.14044 10.2858 9.12133C10.3209 9.10221 10.3497 9.07401 10.369 9.03991C10.4199 8.9382 10.4427 8.82559 10.4353 8.71292V8.667H10.1487V7.98975H11.3717ZM11.4031 9.93278L12.1595 6.60331H13.2452L14 9.93278H13.0612L12.9877 9.44237H12.4178L12.3444 9.93278H11.4031ZM12.5123 8.76977H12.8957L12.7012 7.53591L12.5123 8.76977H12.5123Z" fill="#485E88"/>
<path d="M7.749 13.5075L7.12296 13.9783C7.03179 14.05 6.93492 14.1148 6.83322 14.1719C6.76745 14.207 6.69447 14.2277 6.61945 14.2326C6.54351 14.2369 6.46756 14.2246 6.39718 14.1968C6.32146 14.1678 6.2554 14.1194 6.20612 14.0569C6.14974 13.9879 6.11541 13.9046 6.10731 13.8171C6.0992 13.7297 6.11768 13.6419 6.16048 13.5643C6.05642 13.6083 5.94034 13.6184 5.82977 13.5932C5.7252 13.5667 5.63302 13.5069 5.56824 13.4236C5.51205 13.354 5.47344 13.2727 5.45546 13.1862C5.43595 13.1011 5.43929 13.0126 5.46517 12.9291C5.49547 12.8408 5.54849 12.7612 5.61929 12.6979C5.66753 12.6532 5.7919 12.5542 5.99241 12.4009L6.52548 12L7.749 13.5075ZM7.22885 13.4946L6.94596 13.146L6.73884 13.3018C6.61559 13.3945 6.54043 13.4538 6.51338 13.4798C6.46837 13.5189 6.4387 13.5718 6.42935 13.6295C6.42638 13.6568 6.42923 13.6845 6.43773 13.7108C6.44623 13.737 6.4602 13.7613 6.47878 13.7822C6.51039 13.8251 6.55749 13.8549 6.61082 13.866C6.66771 13.8736 6.72547 13.8604 6.77278 13.8291C6.807 13.809 6.8985 13.743 7.04728 13.6311L7.22885 13.4946ZM6.74228 12.8951L6.41526 12.4921L6.12282 12.7121C6.0485 12.7642 5.97843 12.8218 5.91325 12.8843C5.8745 12.9244 5.85118 12.9761 5.84715 13.0307C5.84522 13.0899 5.86645 13.1475 5.90664 13.1923C5.93859 13.2341 5.9832 13.2653 6.03434 13.2816C6.08522 13.296 6.13957 13.2942 6.18931 13.2765C6.29672 13.2261 6.39682 13.1624 6.48705 13.087L6.74228 12.8951ZM6.3215 14.6561L6.04281 14.9339L5.26858 14.2142C5.19099 14.1377 5.10767 14.0669 5.01927 14.0023C4.95247 13.9606 4.87196 13.9442 4.79332 13.9563C4.70098 13.9745 4.6175 14.0217 4.55595 14.0904C4.48771 14.1492 4.44228 14.2286 4.42712 14.3156C4.41898 14.3817 4.43714 14.4484 4.47795 14.5021C4.54845 14.587 4.62561 14.6666 4.70875 14.7402L5.49958 15.4753L5.2209 15.7531L4.47 15.0551C4.34465 14.9455 4.23037 14.8248 4.12869 14.6945C4.07547 14.6203 4.04242 14.5344 4.03257 14.4447C4.02556 14.3525 4.04125 14.26 4.07837 14.1746C4.13159 14.0601 4.20714 13.9565 4.30093 13.8695C4.39776 13.7629 4.51581 13.6762 4.6481 13.6144C4.73768 13.5776 4.83504 13.5616 4.93225 13.5678C5.01556 13.5732 5.09648 13.597 5.16877 13.6372C5.3098 13.727 5.44057 13.8309 5.55889 13.9472L6.32146 14.656L6.3215 14.6561ZM3.45074 14.8224L5.07867 15.9197L4.84855 16.236L4.12574 15.7488L4.38361 16.8753L4.07412 17.3007L3.86917 16.2833L2.42284 16.2355L2.7206 15.8262L3.79793 15.9106L3.71262 15.4704L3.22062 15.1388L3.45074 14.8224V14.8224ZM2.286 16.5242L3.97132 17.538L3.75879 17.8654L2.07343 16.8517L2.28604 16.5242L2.286 16.5242ZM1.65634 17.6525L3.1402 18.3492L3.39861 17.8392L3.70097 17.9812L3.0087 19.3474L2.70637 19.2055L2.96413 18.6967L1.48028 18L1.65634 17.6525V17.6525ZM1.25011 20.699L1.57372 20.7824L1.34989 21.5865L0.585145 21.3893C0.520977 21.2666 0.482512 21.1328 0.471942 20.9958C0.4533 20.8372 0.465504 20.6766 0.507931 20.5223C0.552644 20.345 0.64457 20.182 0.774653 20.0493C0.896368 19.9287 1.05442 19.848 1.22642 19.8186C1.40643 19.7869 1.59157 19.7949 1.76789 19.8421C1.95423 19.8866 2.12599 19.9755 2.26745 20.1005C2.39949 20.22 2.48978 20.3761 2.52589 20.5471C2.55571 20.7026 2.54627 20.8628 2.49837 21.014C2.457 21.207 2.35203 21.3819 2.19907 21.5127C2.0617 21.6164 1.8891 21.6671 1.71498 21.6549L1.7461 21.2658C1.84226 21.2658 1.93554 21.2342 2.01056 21.1763C2.08923 21.1122 2.14418 21.0253 2.1672 20.9285C2.19083 20.8573 2.19835 20.7821 2.18927 20.7078C2.18018 20.6336 2.1547 20.5621 2.11454 20.4981C2.00931 20.3584 1.85259 20.2627 1.67647 20.2306C1.44896 20.1719 1.2645 20.1766 1.12309 20.2447C1.0537 20.2779 0.992846 20.3255 0.944896 20.3841C0.896945 20.4427 0.863099 20.5108 0.845795 20.5836C0.823897 20.6643 0.817886 20.7483 0.828071 20.8312C0.836371 20.9109 0.856401 20.989 0.887562 21.0633L1.13113 21.1261L1.25006 20.6989L1.25011 20.699ZM1.1872 21.7949C1.3612 21.8074 1.53063 21.8545 1.68484 21.9331C1.78054 21.9865 1.86573 22.0558 1.93654 22.1376C2.0048 22.2149 2.05609 22.3046 2.08731 22.4015C2.1277 22.5372 2.13907 22.6794 2.12075 22.8196C2.11318 22.9443 2.07863 23.0662 2.0193 23.1773C1.95998 23.2885 1.87719 23.3865 1.77624 23.465C1.57745 23.6151 1.31716 23.6738 0.995367 23.6413C0.676014 23.609 0.435426 23.5002 0.273602 23.3148C0.192135 23.2183 0.132522 23.1065 0.0985895 22.9865C0.0646567 22.8666 0.057153 22.7411 0.0765601 22.6182C0.083809 22.4932 0.117999 22.3711 0.176954 22.2595C0.235908 22.148 0.318338 22.0494 0.418998 21.9702C0.528705 21.8937 0.65306 21.8388 0.7849 21.8087C0.91674 21.7786 1.05346 21.7739 1.18719 21.7949L1.1872 21.7949ZM1.15737 22.1918C0.975738 22.1609 0.788628 22.1957 0.632103 22.2897C0.570924 22.3311 0.519987 22.3849 0.482922 22.4475C0.445856 22.51 0.423575 22.5796 0.417669 22.6513C0.407851 22.7223 0.414503 22.7945 0.437144 22.8627C0.459786 22.9309 0.497853 22.9934 0.548606 23.0457C0.684097 23.1687 0.861793 23.2396 1.04798 23.2449C1.22801 23.2767 1.4139 23.2441 1.57069 23.1531C1.62918 23.1088 1.67781 23.0536 1.71369 22.9907C1.74956 22.9279 1.77195 22.8588 1.77952 22.7875C1.78709 22.7162 1.77968 22.6442 1.75774 22.5757C1.7358 22.5072 1.69978 22.4436 1.65182 22.3888C1.51765 22.267 1.34168 22.1969 1.15736 22.1918H1.15737ZM0.0243937 23.9768L1.99522 24.01L1.98823 24.3961L0.352333 24.3686L0.334904 25.3288L0 25.3231L0.0243937 23.9768ZM0.0599743 25.7045L2.0325 25.4713L2.19854 26.7733L1.86466 26.8127L1.74753 25.8945L1.28095 25.9497L1.38208 26.7424L1.0482 26.7818L0.947063 25.9892L0.108886 26.0882L0.0599656 25.7045H0.0599743ZM0.462274 28.2547L2.35232 27.6635L2.5379 28.2133L1.35989 28.9466L2.7594 28.8695L2.94537 29.4206L1.05532 30.0118L0.940202 29.6707L2.42807 29.2054L0.81826 29.3095L0.698842 28.9557L2.06514 28.1303L0.577346 28.5956L0.462255 28.2546L0.462274 28.2547ZM1.27406 30.4706L3.0896 29.6925L3.68883 30.9881L3.38152 31.1198L2.94543 30.177L2.54303 30.3494L2.94877 31.2267L2.64319 31.3577L2.23741 30.4804L1.74328 30.6922L2.19479 31.6683L1.88873 31.7995L1.27406 30.4706V30.4706ZM3.81279 31.1533L4.20141 31.752C4.27241 31.8536 4.32896 31.9639 4.36956 32.0799C4.40234 32.1902 4.40346 32.307 4.37282 32.4178C4.34031 32.535 4.28164 32.644 4.2009 32.7371C4.09657 32.8529 3.97352 32.9517 3.83649 33.0298C3.7165 33.1054 3.5844 33.1614 3.44551 33.1957C3.31115 33.2289 3.1705 33.2306 3.0353 33.2008C2.92987 33.1731 2.83263 33.1221 2.75136 33.0517C2.66322 32.9734 2.58772 32.8829 2.52735 32.7831L2.12744 32.1671L3.81279 31.1533V31.1533ZM3.7401 31.6524L2.62412 32.3237L2.78275 32.5681C2.82349 32.636 2.87207 32.6993 2.92755 32.7567C2.97089 32.7987 3.02438 32.8297 3.08322 32.8469C3.15591 32.8613 3.23126 32.8571 3.30172 32.8347C3.41875 32.799 3.52998 32.7477 3.63214 32.6821C3.73543 32.6247 3.82921 32.5527 3.91034 32.4685C3.96058 32.414 3.99594 32.3484 4.01324 32.2775C4.02616 32.2105 4.01947 32.1414 3.99394 32.0779C3.95016 31.9806 3.89712 31.8873 3.83548 31.7993L3.74011 31.6524L3.7401 31.6524ZM3.28671 33.8573L4.85274 32.6796L5.09974 32.9839L3.53365 34.1616L3.28667 33.8573H3.28671ZM4.14702 34.8578L5.33457 33.7538L4.92511 33.3457L5.16706 33.1207L6.26409 34.2142L6.02209 34.4392L5.61358 34.032L4.42594 35.1359L4.14699 34.8578H4.14702ZM5.1049 35.7921L6.40872 34.3483L7.52059 35.2786L7.29988 35.523L6.49079 34.846L6.20174 35.166L6.95471 35.7961L6.73521 36.0391L5.98229 35.409L5.62744 35.802L6.46524 36.503L6.24545 36.7464L5.10497 35.7921H5.1049ZM6.64193 37.0058L7.78183 35.4388L8.47393 35.9052C8.60598 35.9857 8.72358 36.0863 8.82215 36.203C8.88062 36.2843 8.90898 36.3821 8.90264 36.4807C8.89666 36.587 8.85887 36.6894 8.79382 36.7755C8.72009 36.885 8.60573 36.9633 8.47407 36.9945C8.32721 37.0195 8.17588 36.9938 8.04684 36.9218C8.08616 37.0011 8.11325 37.0855 8.12726 37.1723C8.13937 37.2988 8.14001 37.426 8.12916 37.5526L8.10576 37.9924L7.71271 37.7275L7.7232 37.2262C7.72896 37.1105 7.72706 36.9946 7.7175 36.8792C7.71149 36.8319 7.69387 36.7867 7.6661 36.7472C7.62229 36.6969 7.57071 36.6533 7.51317 36.6181L7.44685 36.5733L6.97099 37.2275L6.642 37.0058L6.64193 37.0058ZM7.62884 36.3231L7.87174 36.4868C7.96723 36.5584 8.07109 36.6189 8.18121 36.6672C8.22723 36.6807 8.27661 36.6792 8.32163 36.6628C8.3703 36.6435 8.41173 36.6104 8.44043 36.5678C8.47635 36.523 8.49379 36.467 8.48938 36.4105C8.48175 36.3546 8.45371 36.3031 8.41028 36.2653C8.38612 36.2441 8.30739 36.1885 8.17408 36.0984L7.91784 35.9257L7.62883 36.323L7.62884 36.3231ZM10.0277 38.8576L9.63507 38.6733L9.67711 38.2093L8.96303 37.8741L8.61786 38.1957L8.23524 38.0161L9.8022 36.6233L10.1836 36.8023L10.0277 38.8576V38.8576ZM9.70812 37.8656L9.78523 37.1119L9.22069 37.6368L9.70809 37.8656H9.70812ZM10.3295 38.9859L10.9436 37.1665L11.3151 37.2827L11.6786 38.7396L12.0887 37.5247L12.4434 37.6356L11.8293 39.455L11.4459 39.3351L11.0847 37.9104L10.6842 39.0969L10.3295 38.9859L10.3295 38.9859ZM12.3565 39.5506L12.7697 37.6794L13.1621 37.7596L12.7489 39.6309L12.3565 39.5506ZM15 40L14.5686 39.9342L14.4678 39.4787L13.6831 39.3591L13.4507 39.7638L13.0302 39.6997L14.1057 37.9268L14.5248 37.9907L15 40L15 40ZM14.3931 39.1413L14.2379 38.3987L13.8575 39.0596L14.3931 39.1412L14.3931 39.1413Z" fill="#485E88"/>
<path fill-rule="evenodd" clip-rule="evenodd" d="M19.0513 29.5518C19.8734 29.5129 20.5561 29.822 20.5759 30.2422C20.5958 30.6623 19.9455 31.0347 19.1234 31.0736C18.3013 31.1125 17.6187 30.8034 17.5988 30.3832C17.579 29.9631 18.2292 29.5907 19.0513 29.5518ZM10.9433 15.0205C11.2263 14.6512 11.6087 14.4689 11.7973 14.6135C11.986 14.7582 11.9097 15.1748 11.6268 15.544C11.3439 15.9133 10.9615 16.0956 10.7728 15.951C10.5841 15.8064 10.6604 15.3897 10.9433 15.0205ZM25.361 24.016C25.4637 23.5623 25.7351 23.237 25.967 23.2895C26.1988 23.3422 26.3037 23.7525 26.2007 24.2062C26.098 24.6599 25.8266 24.9852 25.5947 24.9327C25.3629 24.8802 25.2581 24.4697 25.361 24.016V24.016ZM25.3442 26.1967C25.6083 25.778 25.9959 25.5478 26.2099 25.6828C26.4238 25.8178 26.3833 26.2667 26.1192 26.6854C25.8551 27.1041 25.4675 27.3343 25.2535 27.1993C25.0396 27.0643 25.0801 26.6154 25.3442 26.1967H25.3442ZM23.6299 25.6261C24.0363 25.0842 24.5905 24.8132 24.8675 25.021C25.1445 25.2287 25.0396 25.8366 24.6332 26.3784C24.2267 26.9203 23.6725 27.1913 23.3955 26.9836C23.1185 26.7758 23.2234 26.168 23.6299 25.6261ZM20.9232 26.8787C21.614 26.6876 22.2534 26.8189 22.3511 27.1719C22.4487 27.525 21.968 27.9664 21.2772 28.1574C20.5865 28.3485 19.947 28.2173 19.8494 27.8642C19.7517 27.5111 20.2324 27.0698 20.9232 26.8787ZM22.8808 28.1268C23.4761 27.7275 24.1242 27.6505 24.3283 27.9547C24.5323 28.2589 24.2153 28.8294 23.62 29.2285C23.0248 29.6276 22.3766 29.7048 22.1725 29.4006C21.9685 29.0963 22.2855 28.5259 22.8808 28.1267V28.1268ZM11.2007 18.5888C11.0561 19.2628 10.6594 19.7495 10.315 19.6755C9.97052 19.6015 9.80833 18.9951 9.953 18.3211C10.0977 17.6472 10.4943 17.1605 10.8388 17.2345C11.1832 17.3085 11.3454 17.9148 11.2007 18.5888ZM9.74832 17.382C9.37646 17.9624 8.83432 18.279 8.53768 18.089C8.24105 17.899 8.3019 17.2741 8.67376 16.6937C9.04561 16.1133 9.58774 15.7967 9.8844 15.9867C10.181 16.1768 10.1202 16.8016 9.74835 17.382H9.74832ZM11.5026 21.8748C11.6556 22.6004 11.4789 23.252 11.1082 23.3302C10.7374 23.4083 10.3126 22.8836 10.1596 22.1582C10.0067 21.4328 10.1833 20.781 10.5541 20.7029C10.9249 20.6247 11.3497 21.1494 11.5026 21.8748ZM8.95671 20.71C8.96305 21.4515 8.66092 22.0553 8.28197 22.0584C7.90301 22.0616 7.59056 21.4632 7.58425 20.7219C7.57793 19.9805 7.88004 19.3766 8.25902 19.3734C8.638 19.3703 8.95042 19.9687 8.95671 20.71ZM10.4286 24.9384C10.9396 25.5835 11.0865 26.3184 10.7567 26.5795C10.427 26.8407 9.74526 26.5294 9.23439 25.8842C8.72352 25.239 8.57657 24.5041 8.90632 24.243C9.23608 23.9819 9.91781 24.2931 10.4286 24.9384ZM17.7179 26.6108C18.5203 26.7936 19.0953 27.2744 19.0017 27.6844C18.9083 28.0945 18.182 28.279 17.3796 28.0962C16.5772 27.9133 16.0022 27.4325 16.0957 27.0225C16.1893 26.6125 16.9155 26.4279 17.7179 26.6108ZM13.7932 24.8291C14.4422 25.3353 14.7587 26.0147 14.5 26.3463C14.2413 26.6778 13.5053 26.5367 12.8564 26.0305C12.2075 25.5244 11.891 24.845 12.1497 24.5134C12.4084 24.1819 13.1443 24.323 13.7932 24.8291H13.7932ZM14.0359 27.7744C14.8045 28.0684 15.306 28.6254 15.1557 29.0183C15.0053 29.4111 14.2603 29.4914 13.4917 29.1973C12.723 28.9032 12.2215 28.3462 12.3719 27.9534C12.5222 27.5606 13.2673 27.4803 14.0359 27.7744ZM18.8292 32.9649C19.551 32.8165 20.1977 32.9952 20.2736 33.3641C20.3495 33.733 19.8257 34.1526 19.1039 34.301C18.3821 34.4495 17.7354 34.2707 17.6595 33.9018C17.5836 33.533 18.1074 33.1134 18.8292 32.9649ZM21.6859 31.5004C22.2109 31.1905 22.7652 31.1569 22.9235 31.4253C23.0818 31.6937 22.7845 32.1625 22.2594 32.4724C21.7343 32.7822 21.1801 32.8159 21.0217 32.5475C20.8634 32.2791 21.1608 31.8102 21.6859 31.5004ZM7.08079 27.4997C7.34576 28.0488 7.33293 28.6039 7.05224 28.7393C6.77155 28.8747 6.32916 28.5392 6.06428 27.9901C5.79939 27.4409 5.81215 26.8858 6.09281 26.7505C6.37348 26.6151 6.81592 26.9505 7.08079 27.4997ZM6.79743 24.385C6.97221 25.1008 6.81721 25.7538 6.45135 25.8431C6.0855 25.9324 5.64699 25.4244 5.47229 24.7085C5.29759 23.9926 5.45251 23.3397 5.81838 23.2504C6.18424 23.161 6.62273 23.6691 6.79743 24.385ZM11.7127 31.9768C12.4009 32.2401 12.8499 32.7389 12.7153 33.0906C12.5807 33.4424 11.9135 33.5142 11.2253 33.2509C10.537 32.9875 10.0881 32.4888 10.2226 32.1371C10.3572 31.7853 11.0244 31.7135 11.7127 31.9768V31.9768ZM9.97161 28.8728C10.7364 29.3903 11.1421 30.1271 10.8775 30.518C10.613 30.9088 9.77832 30.8062 9.01352 30.2886C8.24873 29.771 7.84305 29.0343 8.10762 28.6435C8.3722 28.2526 9.20681 28.3552 9.97161 28.8728ZM15.6666 31.7513C16.5752 31.9162 17.2436 32.4266 17.1592 32.891C17.0749 33.3555 16.2697 33.5983 15.3611 33.4333C14.4525 33.2683 13.7841 32.758 13.8684 32.2936C13.9527 31.8291 14.7579 31.5863 15.6665 31.7513H15.6666ZM16.0134 12C18.9919 12.0033 21.8628 13.1143 24.0678 15.1168C26.2727 17.1194 27.6541 19.8704 27.9433 22.8349C28.2325 25.7994 27.4088 28.7655 25.6324 31.1565C23.8561 33.5474 21.254 35.1922 18.3322 35.7711C15.4104 36.35 12.3778 35.8216 9.82398 34.2886C7.27017 32.7557 5.37776 30.3277 4.51475 27.4769C3.65173 24.6261 3.87979 21.5562 5.15459 18.8642C6.42938 16.1722 8.65979 14.0505 11.4121 12.9117C12.8709 12.3079 14.4345 11.9981 16.0134 12ZM10.9621 28.2027C10.1337 27.4428 8.80682 27.9009 8.14619 26.9704C7.51659 26.0834 8.02427 25.1316 7.72465 24.0857C7.44744 23.118 6.3145 22.4226 6.22195 21.4932C6.09283 20.1965 6.87557 19.6018 7.1376 18.448C7.1609 18.2938 7.16244 18.1371 7.14218 17.9824C8.60448 15.8428 10.791 14.3041 13.2986 13.6498C15.8062 12.9956 18.4658 13.27 20.787 14.4225C23.1082 15.575 24.9344 17.5278 25.929 19.9209C26.9236 22.314 27.0195 24.986 26.199 27.4442C25.9179 27.6978 25.735 27.7444 25.3428 28.0999C24.7256 28.6594 24.9051 29.373 24.2295 29.8726C23.5118 30.4035 22.5713 30.1274 21.7875 30.4422C20.6715 30.8903 20.3458 32.1174 19.1243 32.1396C17.5107 32.1689 17.231 30.7692 16.0026 30.4993C14.9153 30.2604 13.9496 31.1224 12.825 30.6808C11.7662 30.2651 12.002 29.1567 10.9621 28.2027L10.9621 28.2027Z" fill="#485E88"/>
<path d="M15.7822 21.3824C15.8263 21.3933 15.8714 21.4005 15.917 21.4041C15.9678 21.407 16.0249 21.4084 16.0899 21.4084C16.2319 21.4082 16.3734 21.3937 16.5118 21.3652C16.6546 21.3344 16.7922 21.2865 16.921 21.2227C17.1867 21.0895 17.3947 20.8783 17.511 20.6239C17.5797 20.4653 17.6141 20.2962 17.6125 20.1258C17.6132 19.9957 17.5907 19.8664 17.5459 19.7429C17.5074 19.6372 17.4501 19.538 17.3762 19.4492C17.3104 19.3695 17.2318 19.2991 17.143 19.2405C17.0487 19.1744 16.9425 19.1238 16.829 19.0908C16.7192 19.058 16.606 19.0358 16.4911 19.0245C16.3965 19.0136 16.3011 19.0083 16.2057 19.0087C16.0486 19.0087 15.9027 19.0087 15.7711 19.0101C15.6379 19.0116 15.5046 19.013 15.373 19.0145C15.2398 19.0159 15.0954 19.0188 14.9368 19.0217C14.8163 19.0217 14.6973 19.0202 14.5784 19.0159C14.461 19.013 14.3531 19.0102 14.258 19.0058C14.1628 19.003 14.0883 19.0015 14.0359 19.0001C14.0232 19.015 14.0155 19.033 14.0137 19.0519C14.0083 19.079 14.0062 19.1065 14.0074 19.1339C14.0063 19.1577 14.0112 19.1813 14.0217 19.2031C14.0899 19.2088 14.1518 19.216 14.2089 19.2232C14.2675 19.2319 14.3199 19.2391 14.3659 19.2448C14.4202 19.2538 14.4713 19.2746 14.5149 19.3053C14.5509 19.3346 14.5759 19.3733 14.5863 19.4161C14.6013 19.4747 14.6098 19.5345 14.6117 19.5946C14.6181 19.6623 14.6212 19.7515 14.6228 19.8653C14.6244 19.9804 14.6244 20.1229 14.6228 20.2943C14.6228 20.4655 14.6212 20.6714 14.6212 20.9104C14.6212 21.2832 14.6196 21.5908 14.6165 21.8331C14.6133 22.0749 14.6101 22.2549 14.6069 22.3701C14.6049 22.431 14.5975 22.4916 14.5848 22.5514C14.5749 22.5939 14.5537 22.6334 14.5229 22.6666C14.4874 22.6987 14.443 22.7216 14.3944 22.7328C14.3405 22.7415 14.2818 22.7501 14.2183 22.7587C14.1549 22.7659 14.0867 22.7746 14.0122 22.7832C14.0043 22.801 14.0006 22.8201 14.0011 22.8394C13.9992 22.8676 13.9998 22.896 14.0026 22.9243C14.0036 22.946 14.0101 22.9672 14.0217 22.9862C14.1089 22.9862 14.2089 22.9833 14.3215 22.9804C14.4357 22.9775 14.5546 22.9732 14.6783 22.9703C14.802 22.9674 14.9226 22.9646 15.04 22.9646C15.1558 22.9646 15.2795 22.9675 15.4127 22.9703C15.5459 22.9732 15.6728 22.9775 15.7949 22.9804C15.9171 22.9833 16.0202 22.9862 16.1026 22.9862C16.1179 22.9681 16.1277 22.9468 16.1312 22.9243C16.1364 22.8962 16.1385 22.8678 16.1375 22.8394C16.1386 22.8196 16.1331 22.8 16.1217 22.7832C16.0313 22.7745 15.9504 22.7659 15.8775 22.7558C15.8111 22.748 15.7453 22.736 15.6808 22.7198C15.6267 22.7126 15.5757 22.6922 15.5333 22.6608C15.4983 22.632 15.4735 22.5944 15.4619 22.5529C15.4461 22.5003 15.437 22.4461 15.435 22.3916C15.4286 22.2736 15.4238 22.1311 15.4222 21.9626C15.4207 21.7942 15.4207 21.6143 15.4207 21.4243V20.86C15.4207 20.621 15.4207 20.4166 15.4222 20.2467C15.4238 20.0754 15.4254 19.9343 15.427 19.8192C15.4286 19.7055 15.4317 19.6119 15.435 19.5399C15.4365 19.468 15.4397 19.4104 15.4445 19.3672C15.4444 19.3483 15.4505 19.3297 15.4619 19.3139C15.4688 19.3029 15.4786 19.2935 15.4905 19.2866C15.5144 19.2774 15.5394 19.2706 15.565 19.2664C15.5983 19.2621 15.6301 19.2592 15.6633 19.2564C15.6951 19.2549 15.722 19.2535 15.741 19.2535C15.9419 19.2481 16.1405 19.2929 16.3152 19.383C16.4652 19.4678 16.5835 19.5918 16.6546 19.7386C16.7335 19.9048 16.7719 20.0845 16.7672 20.2655C16.7741 20.4334 16.7434 20.6009 16.6768 20.7578C16.6172 20.8881 16.5118 20.9969 16.377 21.0673C16.3154 21.0984 16.2499 21.1225 16.1819 21.1393C16.103 21.1563 16.022 21.1646 15.9409 21.1637C15.8917 21.1637 15.8457 21.1623 15.8029 21.1594C15.768 21.159 15.7334 21.1547 15.6998 21.1464C15.6913 21.1541 15.6848 21.1635 15.6807 21.1738C15.6744 21.1849 15.6711 21.1972 15.6712 21.2098C15.6768 21.229 15.6842 21.2478 15.6934 21.2659C15.7061 21.2889 15.7187 21.3105 15.7346 21.3335C15.7472 21.3523 15.7633 21.3688 15.7822 21.3825L15.7822 21.3824ZM17.9768 19.203C18.0703 19.2102 18.1481 19.2188 18.2099 19.2275C18.2712 19.2364 18.3316 19.2493 18.3907 19.2663C18.4203 19.2728 18.448 19.2849 18.472 19.3018C18.4961 19.3186 18.5159 19.3399 18.5303 19.3642C18.5584 19.4208 18.5725 19.4822 18.5716 19.5442C18.5795 19.6435 18.5859 19.7529 18.589 19.8738C18.5922 19.9933 18.5938 20.1315 18.5953 20.2855V21.3278C18.5953 21.4962 18.5937 21.6531 18.5937 21.7985C18.5922 21.9453 18.5906 22.072 18.5874 22.18C18.5858 22.2879 18.5811 22.3671 18.5763 22.4203C18.574 22.475 18.5639 22.5292 18.5462 22.5816C18.5334 22.6205 18.5073 22.6548 18.4716 22.6794C18.4263 22.707 18.3749 22.7251 18.321 22.7327C18.2797 22.7413 18.2305 22.75 18.1734 22.7586C18.1163 22.7658 18.0513 22.7744 17.9768 22.7831C17.9636 22.7994 17.9564 22.819 17.9561 22.8392C17.9514 22.8683 17.9514 22.8979 17.9561 22.927C17.9568 22.948 17.964 22.9685 17.9768 22.986C18.0592 22.986 18.1512 22.9832 18.2496 22.9803C18.348 22.9774 18.4606 22.9731 18.5875 22.9702C18.7143 22.9673 18.8634 22.9645 19.0316 22.9645C19.2441 22.9645 19.4344 22.9673 19.6025 22.9716C19.7707 22.9759 19.9118 22.9817 20.026 22.986C20.0378 22.9691 20.0449 22.9499 20.0466 22.9299C20.0528 22.9009 20.0565 22.8716 20.0577 22.8421C20.0597 22.8221 20.057 22.802 20.0498 22.7831C19.9689 22.7701 19.8928 22.7586 19.8182 22.7471C19.7568 22.7381 19.6959 22.726 19.6358 22.7111C19.5789 22.7024 19.5261 22.6789 19.4836 22.6434C19.4512 22.6114 19.4288 22.5722 19.4186 22.5297C19.407 22.4815 19.4006 22.4323 19.3995 22.3829C19.3947 22.3037 19.3915 22.1929 19.3899 22.0489C19.3868 21.9049 19.3868 21.7337 19.3852 21.5364V20.3532C19.3868 20.1862 19.3868 20.0365 19.3899 19.9026C19.3915 19.7701 19.3947 19.6636 19.3995 19.5816C19.4015 19.5285 19.4079 19.4755 19.4186 19.4233C19.4258 19.3843 19.4438 19.3477 19.4709 19.3168C19.5031 19.2858 19.5444 19.2638 19.5898 19.2534C19.6343 19.2433 19.6882 19.2332 19.75 19.2246C19.8135 19.2159 19.8817 19.2088 19.9563 19.203C19.9673 19.1833 19.9738 19.1618 19.9753 19.1397C19.9771 19.1119 19.9766 19.0839 19.9737 19.0562C19.9728 19.0365 19.9668 19.0172 19.9563 19C19.8785 19.0015 19.7596 19.0044 19.6025 19.0101C19.4455 19.0173 19.2378 19.0202 18.9761 19.0216C18.7603 19.0202 18.5668 19.0173 18.3955 19.0101C18.2258 19.0044 18.0894 19.0015 17.9863 19C17.9741 19.0162 17.9669 19.0351 17.9657 19.0547C17.9609 19.0828 17.9593 19.1113 17.961 19.1397C17.9612 19.1616 17.9666 19.1832 17.9768 19.203H17.9768ZM21.7162 20.9319V20.5864C21.7178 20.4641 21.7178 20.3403 21.7194 20.2165C21.721 20.0927 21.7225 19.9775 21.7241 19.8695C21.7257 19.7601 21.7273 19.668 21.7305 19.5903C21.7257 19.5124 21.7387 19.4345 21.7686 19.3614C21.7834 19.3351 21.805 19.3123 21.8315 19.295C21.858 19.2778 21.8886 19.2665 21.9208 19.2621C21.9709 19.2443 22.0231 19.2318 22.0763 19.2246C22.1334 19.216 22.192 19.2088 22.2555 19.203C22.2647 19.183 22.2695 19.1615 22.2697 19.1397C22.2714 19.1119 22.2714 19.084 22.2697 19.0562C22.2688 19.0369 22.2639 19.0178 22.2555 19.0001C22.1334 19.0015 21.9954 19.0044 21.8383 19.0101C21.6813 19.0174 21.51 19.0202 21.326 19.0217C21.0627 19.0202 20.8534 19.0173 20.6979 19.0101C20.5425 19.0044 20.4235 19.0015 20.3459 19.0001C20.332 19.0162 20.3236 19.0358 20.322 19.0562C20.3181 19.0844 20.3181 19.1129 20.322 19.1411C20.3227 19.1635 20.331 19.1852 20.3459 19.203C20.4125 19.2088 20.4807 19.216 20.5505 19.2261C20.6088 19.2327 20.6662 19.2448 20.7218 19.2621C20.7527 19.2673 20.782 19.2785 20.8077 19.2949C20.8334 19.3113 20.8549 19.3325 20.8708 19.3571C20.9019 19.4199 20.916 19.4884 20.9121 19.5572C20.92 19.7141 20.9248 19.9041 20.9232 20.1272C20.9232 20.3518 20.9216 20.6066 20.9216 20.8945C20.9248 21.0816 20.9264 21.2673 20.9279 21.4516C20.9279 21.6358 20.9279 21.8043 20.9248 21.9583C20.9232 22.1123 20.9184 22.239 20.9121 22.3369C20.918 22.4294 20.9029 22.522 20.8677 22.609C20.8506 22.6392 20.8259 22.6654 20.7956 22.6854C20.7652 22.7054 20.7302 22.7187 20.6932 22.7241C20.6472 22.7342 20.5902 22.7457 20.5235 22.7558C20.4568 22.7659 20.3855 22.7745 20.3078 22.7832C20.2977 22.8015 20.2923 22.8217 20.2919 22.8422C20.2903 22.8705 20.2903 22.8988 20.2919 22.9271C20.2923 22.9476 20.2977 22.9677 20.3078 22.9861C20.3585 22.9861 20.4331 22.9832 20.5298 22.9803C20.625 22.9775 20.7392 22.9732 20.8677 22.9703C20.9978 22.9674 21.1357 22.9645 21.2832 22.9645C21.4989 22.9645 21.694 22.9674 21.8653 22.9717C22.0366 22.976 22.1888 22.9818 22.3205 22.9861C22.3336 22.969 22.3418 22.9492 22.3443 22.9285C22.3519 22.9003 22.3556 22.8713 22.3554 22.8422C22.3589 22.8217 22.3544 22.8009 22.3427 22.7831C22.265 22.7716 22.192 22.7601 22.1254 22.7515C22.0671 22.7444 22.0093 22.7338 21.9525 22.7198C21.9177 22.7132 21.8847 22.7 21.8557 22.6812C21.8268 22.6624 21.8025 22.6382 21.7844 22.6104C21.7469 22.5334 21.7285 22.4498 21.7305 22.3657C21.7257 22.2347 21.7225 22.0965 21.7209 21.9511C21.7178 21.8057 21.7178 21.6488 21.7162 21.4818V20.9319L21.7162 20.9319ZM22.8407 19.203C22.9295 19.2116 23.0057 19.2203 23.0675 19.2318C23.1211 19.2401 23.1741 19.2517 23.2261 19.2663C23.2639 19.2755 23.2987 19.2928 23.3276 19.3167C23.3375 19.3247 23.3456 19.3345 23.3513 19.3453C23.357 19.3562 23.3603 19.368 23.3609 19.3801C23.3586 19.4334 23.3429 19.4856 23.3149 19.5326C23.273 19.6083 23.223 19.6802 23.1658 19.7471C23.0056 19.9357 22.8418 20.1142 22.6741 20.2826C22.5238 20.4353 22.3645 20.5805 22.1967 20.7174C22.0795 20.8173 21.9477 20.9021 21.805 20.9693C21.8006 20.9722 21.797 20.9758 21.7942 20.98C21.7915 20.9843 21.7898 20.9889 21.7891 20.9938C21.7841 21.0093 21.7809 21.0252 21.7796 21.0413C21.778 21.0571 21.7764 21.0701 21.7764 21.0787C21.8043 21.0951 21.8303 21.1139 21.8542 21.1349C21.875 21.1501 21.8928 21.1686 21.9065 21.1895C21.9953 21.299 22.1 21.4228 22.2205 21.5638C22.3411 21.7035 22.4664 21.846 22.598 21.9914C22.7281 22.1368 22.8534 22.2721 22.9723 22.3988C23.0913 22.5255 23.1944 22.6291 23.2816 22.7111C23.3323 22.7571 23.3864 22.7999 23.4434 22.8393C23.4996 22.8789 23.5608 22.9123 23.6258 22.9386C23.6863 22.955 23.7485 22.9656 23.8114 22.9702C23.8954 22.9789 23.9906 22.9861 24.0969 22.9904C24.2031 22.9961 24.3126 22.9991 24.422 22.9991C24.533 23.0005 24.6361 23.0005 24.7313 22.9976C24.8265 22.9947 24.9042 22.9905 24.9645 22.9846C24.9759 22.9669 24.9834 22.9474 24.9867 22.927C24.994 22.8987 24.9983 22.8698 24.9993 22.8407C25.0014 22.8212 24.9987 22.8016 24.9914 22.7831C24.9149 22.7814 24.8386 22.7751 24.763 22.7644C24.6881 22.7537 24.6139 22.7388 24.541 22.7198C24.4908 22.7049 24.4433 22.6835 24.3998 22.6564C24.3486 22.6239 24.2993 22.5888 24.2523 22.5513C24.1619 22.4793 24.0556 22.3872 23.9351 22.2735C23.8129 22.1612 23.6861 22.036 23.5512 21.9007C23.418 21.7639 23.288 21.6272 23.1595 21.4875C23.0326 21.3479 22.9168 21.2169 22.8121 21.0931C22.709 20.9707 22.6265 20.8642 22.5663 20.7764V20.7461C22.6599 20.6526 22.7709 20.5432 22.8962 20.418C23.0215 20.2913 23.1532 20.1574 23.2912 20.0178C23.4292 19.8781 23.564 19.7414 23.6957 19.6075C23.777 19.5201 23.869 19.4413 23.97 19.3729C24.0513 19.3222 24.1414 19.2842 24.2365 19.2606C24.3469 19.2342 24.4593 19.2149 24.5728 19.203C24.5875 19.1844 24.5962 19.1625 24.5981 19.1397C24.6031 19.1116 24.6042 19.083 24.6013 19.0547C24.6012 19.0351 24.5946 19.0161 24.5822 19C24.5172 19.0029 24.4458 19.0058 24.3697 19.0072C24.2936 19.0101 24.2016 19.0115 24.0921 19.0144C23.9843 19.0158 23.8463 19.0187 23.6813 19.0216C23.5021 19.0202 23.3483 19.0173 23.2166 19.0101C23.085 19.0043 22.9613 19.0015 22.8455 19C22.8335 19.0167 22.8269 19.0362 22.8264 19.0562C22.8227 19.0839 22.8221 19.1118 22.8248 19.1397C22.8262 19.1614 22.8316 19.1828 22.8407 19.203L22.8407 19.203Z" fill="#485E88"/>
</svg>
